<svg width="363" height="363" viewBox="0 0 363 363" fill="none" xmlns="http://www.w3.org/2000/svg">
<path d="M363 181.5C363 281.74 281.74 363 181.5 363C81.2603 363 0 281.74 0 181.5C0 81.2603 81.2603 0 181.5 0C281.74 0 363 81.2603 363 181.5Z" fill="#70259B"/>
<path d="M73.6306 188.335L136.142 322.002C138.018 326.012 143.732 325.996 145.584 321.974L207.624 187.278C209.459 183.293 209.459 178.707 207.624 174.722L145.584 40.0257C143.732 36.0044 138.018 35.9877 136.142 39.9982L73.6306 173.665C71.4565 178.314 71.4565 183.686 73.6306 188.335Z" fill="white"/>
<path d="M235.008 66.3111L225.086 87.5907C223.648 90.6751 223.638 94.2375 225.058 97.3302L258.501 170.161C259.912 173.232 259.912 176.768 258.501 179.839L225.058 252.67C223.638 255.763 223.648 259.325 225.086 262.409L235.008 283.689C236.449 286.78 240.841 286.767 242.264 283.668L289.942 179.839C291.353 176.768 291.353 173.232 289.942 170.161L242.264 66.3323C240.841 63.2325 236.449 63.2197 235.008 66.3111Z" fill="white"/>
</svg>
